<svg width="1148" height="973" viewBox="0 0 1148 973" fill="none" xmlns="http://www.w3.org/2000/svg">
<g clip-path="url(#clip0_2672_6660)">
<path d="M1130.91 603.255L1020.83 566.477L581.618 786.504C542.279 806.231 499.771 816.183 457.049 816.183C427.358 816.183 397.524 811.367 368.509 801.7L129.375 721.83L12.2819 780.475C-0.0361756 786.646 -0.178581 798.49 0.0350267 801.95C0.284236 805.41 2.0999 817.111 15.1656 821.463L465.344 971.822C470.969 973.712 476.986 973.284 482.326 970.609L1133.83 644.207C1146.15 638.035 1146.29 626.228 1146.04 622.732C1145.79 619.272 1143.98 607.571 1130.91 603.219V603.255Z" fill="#0B4F6F"/>
<path d="M414.293 753.008C466.912 762.996 528.431 754.506 576.421 729.857L669.804 683.055C603.051 679.059 540.678 662.686 498.241 648.845C492.58 646.99 486.528 647.489 481.259 650.307C475.812 653.161 471.86 658.048 470.08 664.041C458.439 703.388 439.356 733.709 414.293 753.008Z" fill="#0B4F6F"/>
<path d="M686.18 0L630.144 151.715L478.731 207.863L630.144 264.011L686.18 415.726L742.181 264.011L893.594 207.863L742.181 151.715L686.18 0Z" fill="#0B4F6F"/>
<path d="M397.168 159.633L364.771 247.351L277.228 279.813L364.771 312.275L397.168 399.993L429.566 312.275L517.109 279.813L429.566 247.351L397.168 159.633Z" fill="#0B4F6F"/>
<path d="M1147.97 421.648C1147.72 418.188 1145.9 406.487 1132.84 402.135L796.653 289.839C792.737 288.519 788.5 288.59 784.62 290.053C779.742 291.872 775.897 295.724 774.082 300.612L689.778 528.915C689.03 530.877 686.253 530.877 685.541 528.915L599.778 296.723C598.888 294.298 597.001 292.407 594.58 291.515C592.479 290.73 590.13 290.873 588.1 291.872L453.349 359.364C451.534 360.256 450.145 361.825 449.433 363.716L394.607 512.185C394.109 513.576 392.115 513.576 391.617 512.185L354.983 412.944C354.271 411.018 352.028 410.126 350.177 411.053L14.2071 579.391C1.88908 585.563 1.74667 597.37 1.99588 600.866C2.24509 604.326 4.06076 616.027 17.1264 620.379L310.374 718.335C333.836 723.971 353.666 722.723 369.508 714.518C395.39 701.105 409.097 670.249 416.075 646.741C421.985 626.8 435.299 610.498 453.599 600.866C471.755 591.306 492.475 589.558 511.949 595.908C577.954 617.454 696.542 646.027 793.378 614.671L1135.76 443.158C1148.07 436.987 1148.22 425.18 1147.97 421.684V421.648Z" fill="#1E7FA5"/>
</g>
<defs>
<clipPath id="clip0_2672_6660">
<rect width="1148" height="973" fill="white"/>
</clipPath>
</defs>
</svg>
